<svg width="34" height="34" viewBox="0 0 34 34" fill="none" xmlns="http://www.w3.org/2000/svg">
<path fill-rule="evenodd" clip-rule="evenodd" d="M10.4037 1.35367C6.18267 3.19267 1.14567 9.25267 0.360673 13.4387C-0.767327 19.4537 0.716673 24.0177 5.29067 28.5917C12.4937 35.7937 21.3517 35.7937 28.5547 28.5917C35.2667 21.8787 35.6897 13.1817 29.6387 6.28967C24.3847 0.304672 17.0997 -1.56433 10.4037 1.35367ZM15.4827 11.4107C16.4557 12.8957 16.8237 14.6947 16.4177 15.9767C15.4487 19.0297 9.98767 24.9597 8.14467 24.9597C6.92467 24.9597 7.09867 24.4017 8.92267 22.4597L11.2717 19.9597L9.09667 17.6457C7.90067 16.3727 6.92267 14.4377 6.92267 13.3457C6.92267 8.66267 12.8097 7.33167 15.4827 11.4107ZM26.7227 10.1597C29.0937 12.5307 28.1117 17.6167 24.5547 21.3887C21.3547 24.7807 18.9227 25.9587 18.9227 24.1147C18.9227 23.6497 19.8177 22.4597 20.9117 21.4697C22.8907 19.6787 22.8877 19.6567 20.4117 17.3617C17.6627 14.8137 17.4247 13.7587 18.9577 10.8937C20.1307 8.70167 24.8217 8.25867 26.7227 10.1597Z" fill="#C7C7C7"/>
</svg>
