<?xml version="1.0" encoding="utf-8"?><svg xmlns="http://www.w3.org/2000/svg" xmlns:xlink="http://www.w3.org/1999/xlink"><symbol viewBox="0 0 34 34" id="quotation" xmlns="http://www.w3.org/2000/svg"><path fill-rule="evenodd" clip-rule="evenodd" d="M10.404 1.354C6.183 3.193 1.146 9.253.36 13.439c-1.128 6.015.356 10.579 4.93 15.153 7.203 7.202 16.06 7.202 23.264 0 6.712-6.713 7.135-15.41 1.084-22.302-5.254-5.985-12.54-7.854-19.235-4.936zm5.079 10.057c.973 1.485 1.34 3.284.935 4.566-.97 3.053-6.43 8.983-8.273 8.983-1.22 0-1.046-.558.778-2.5l2.349-2.5-2.175-2.314c-1.196-1.273-2.174-3.208-2.174-4.3 0-4.683 5.887-6.014 8.56-1.935zm11.24-1.251c2.37 2.37 1.389 7.457-2.168 11.229-3.2 3.392-5.632 4.57-5.632 2.726 0-.465.895-1.655 1.989-2.645 1.979-1.791 1.976-1.813-.5-4.108-2.75-2.548-2.987-3.603-1.454-6.468 1.173-2.192 5.864-2.635 7.765-.734z"/></symbol></svg>